<svg xmlns="http://www.w3.org/2000/svg" xmlns:xlink="http://www.w3.org/1999/xlink" width="362" height="127" version="1.1" viewBox="0 0 362 127"><g id="Design" fill="none" fill-rule="evenodd" stroke="none" stroke-width="1"><g id="pi_number" transform="translate(-13.000000, 0.000000)"><g id="particles" transform="translate(13.000000, -42.000000)"><circle id="Oval-Copy-10" cx="57" cy="36" r="36" stroke="#F1F1F1" stroke-width="2"/><polygon id="Star-Copy-4" stroke="#F1F1F1" stroke-width="2" points="360.166 153.361 326.824 153.416 343.542 124.568 360.166 95.666 376.79 124.568 393.508 153.416" transform="translate(360.166054, 134.166054) rotate(-269.000000) translate(-360.166054, -134.166054)"/><circle id="Oval-Copy-11" cx="237" cy="86" r="14" stroke="#F1F1F1"/><circle id="Oval" cx="148" cy="77" r="13" fill="#F2F2F2"/><circle id="Oval-Copy-9" cx="294" cy="62" r="13" fill="#F2F2F2"/><circle id="Oval-Copy" cx="341.5" cy="68.5" r="4.5" fill="#E0392C"/><circle id="Oval-Copy-4" cx="206" cy="58" r="3" fill="#31A852"/><circle id="Oval-Copy-5" cx="106.5" cy="87.5" r="4.5" fill="#6A1B9A"/><rect id="Rectangle" width="13" height="13" x="190" y="116" fill="#438AFF"/><rect id="Rectangle-Copy" width="18" height="18" x="0" y="129" fill="#F2F2F2"/><polygon id="Star" fill="#66BAFF" points="21 83.991 15.804 84 18.409 79.504 21 75 23.591 79.504 26.196 84" transform="translate(21.000000, 81.000000) rotate(-270.000000) translate(-21.000000, -81.000000)"/></g></g></g></svg>